<?xml version="1.0" encoding="UTF-8" standalone="no"?>
<!-- Created with Inkscape (http://www.inkscape.org/) -->

<svg
   width="5.34938mm"
   height="5.34938mm"
   viewBox="0 0 5.3493801 5.3493799"
   version="1.1"
   id="svg5"
   sodipodi:docname="logo3.svg"
   inkscape:version="1.2 (dc2aedaf03, 2022-05-15)"
   xmlns:inkscape="http://www.inkscape.org/namespaces/inkscape"
   xmlns:sodipodi="http://sodipodi.sourceforge.net/DTD/sodipodi-0.dtd"
   xmlns:xlink="http://www.w3.org/1999/xlink"
   xmlns="http://www.w3.org/2000/svg"
   xmlns:svg="http://www.w3.org/2000/svg">
  <sodipodi:namedview
     id="namedview21"
     pagecolor="#ffffff"
     bordercolor="#000000"
     borderopacity="0.25"
     inkscape:showpageshadow="2"
     inkscape:pageopacity="0.0"
     inkscape:pagecheckerboard="0"
     inkscape:deskcolor="#d1d1d1"
     inkscape:document-units="mm"
     showgrid="false"
     inkscape:zoom="13.57958"
     inkscape:cx="41.34885"
     inkscape:cy="29.529633"
     inkscape:window-width="3840"
     inkscape:window-height="2050"
     inkscape:window-x="-12"
     inkscape:window-y="-12"
     inkscape:window-maximized="1"
     inkscape:current-layer="svg5" />
  <defs
     id="defs2">
    <linearGradient
       id="linearGradient40527">
      <stop
         style="stop-color:#979797;stop-opacity:1;"
         offset="0"
         id="stop40523" />
      <stop
         style="stop-color:#ffffff;stop-opacity:0;"
         offset="1"
         id="stop40525" />
    </linearGradient>
    <linearGradient
       id="linearGradient30001">
      <stop
         style="stop-color:#000000;stop-opacity:1;"
         offset="0"
         id="stop29997" />
      <stop
         style="stop-color:#767676;stop-opacity:0.77931041;"
         offset="1"
         id="stop29999" />
    </linearGradient>
    <linearGradient
       xlink:href="#linearGradient30001"
       id="linearGradient40339"
       gradientUnits="userSpaceOnUse"
       gradientTransform="translate(-49.088605,35.654501)"
       x1="-1088.2847"
       y1="-341.52377"
       x2="-1096.6444"
       y2="-341.52377" />
    <linearGradient
       xlink:href="#linearGradient40527"
       id="linearGradient40531"
       x1="311.03656"
       y1="9.8133059"
       x2="77.246162"
       y2="-223.9771"
       gradientUnits="userSpaceOnUse" />
    <filter
       style="color-interpolation-filters:sRGB"
       id="filter40547"
       x="-0.03157428"
       y="-0.0028950316"
       width="1.0356053"
       height="1.025571">
      <feFlood
         flood-opacity="0.466667"
         flood-color="rgb(0,0,0)"
         result="flood"
         id="feFlood40537" />
      <feComposite
         in="flood"
         in2="SourceGraphic"
         operator="in"
         result="composite1"
         id="feComposite40539" />
      <feGaussianBlur
         in="composite1"
         stdDeviation="0.0072626743"
         result="blur"
         id="feGaussianBlur40541" />
      <feOffset
         dx="-0.2"
         dy="0.2"
         result="offset"
         id="feOffset40543" />
      <feComposite
         in="SourceGraphic"
         in2="offset"
         operator="over"
         result="composite2"
         id="feComposite40545" />
    </filter>
  </defs>
  <g
     id="layer1"
     transform="matrix(0.0363551,0,0,0.0363551,-4.4498867,6.4404193)">
    <circle
       style="font-variation-settings:normal;fill:url(#linearGradient40531);fill-opacity:1;stroke:#000000;stroke-width:1.5875;stroke-linecap:square;stroke-linejoin:bevel;stroke-miterlimit:4;stroke-dasharray:none;stroke-dashoffset:0;stroke-opacity:1;stop-color:#000000"
       id="path37621"
       cx="195.97186"
       cy="-103.58187"
       r="72.777496" />
    <path
       id="path40337"
       style="fill:url(#linearGradient40339);fill-opacity:1;stroke:#ffffff;stroke-width:0.0236798;stroke-linecap:square;stroke-linejoin:bevel;stroke-dasharray:none;stroke-opacity:1;filter:url(#filter40547);stop-color:#000000"
       d="m -1143.2469,-310.94457 c -0.1169,0.005 -0.227,0.12434 -0.2915,0.28629 -0.079,0.19752 -0.1183,0.51659 -0.1183,0.95756 v 0.37207 0 6.85591 0 0.17932 c 0,0.32613 0.011,0.59222 0.033,0.79892 0.024,0.20212 0.073,0.36058 0.1484,0.47542 0.057,0.0837 0.1171,0.16012 0.234,0.15555 0.1169,-0.005 0.227,-0.12434 0.2915,-0.28629 0.079,-0.19752 0.1183,-0.51659 0.1183,-0.95756 v -0.37207 0 -6.85592 0 -0.17931 c 0,-0.32613 -0.011,-0.59222 -0.033,-0.79892 -0.024,-0.20212 -0.073,-0.36058 -0.1483,-0.47542 -0.057,-0.0837 -0.1172,-0.16012 -0.2341,-0.15555 z m 1.0675,-0.0293 c -0.1757,0 -0.3028,0.0986 -0.3815,0.2961 -0.079,0.19752 -0.1181,0.5166 -0.1181,0.95757 v 7.4073 c 0,0.32613 0.011,0.59221 0.033,0.79891 0.024,0.20212 0.073,0.36059 0.1481,0.47543 0.075,0.11024 0.1867,0.16536 0.3349,0.16536 h 0.309 v -1.62574 0 -6.85591 0 -1.61902 z m -2.0452,0.021 c -0.1169,0.005 -0.227,0.12434 -0.2915,0.28629 -0.079,0.19752 -0.1183,0.51659 -0.1183,0.95756 v 0.37207 0 6.85591 0 0.17932 c 0,0.32613 0.011,0.59222 0.033,0.79892 0.024,0.20212 0.073,0.36058 0.1484,0.47542 0.057,0.0837 0.1171,0.16012 0.234,0.15555 0.1169,-0.005 0.227,-0.12434 0.2915,-0.28629 0.079,-0.19752 0.1183,-0.51659 0.1183,-0.95756 v -0.37207 0 -6.85592 0 -0.17931 c 0,-0.32613 -0.011,-0.59222 -0.033,-0.79892 -0.024,-0.20212 -0.073,-0.36058 -0.1483,-0.47542 -0.057,-0.0837 -0.1172,-0.16012 -0.2341,-0.15555 z m 2.6393,-0.0209 v 1.61902 h 0.8511 c 0.401,0 0.7433,0.0689 1.0263,0.20671 0.283,0.13321 0.52,0.44803 0.7116,0.94412 0.1946,0.49609 0.292,1.24237 0.292,2.23914 0,1.41478 -0.2196,2.41175 -0.6589,2.99052 -0.097,0.13321 -0.212,0.23657 -0.3447,0.31006 -0.1327,0.0735 -0.2611,0.11908 -0.385,0.13746 -0.1238,0.0184 -0.295,0.0279 -0.5131,0.0279 l -0.9793,1.62574 h 1.2139 c 0.2978,0 0.5646,-0.0297 0.8005,-0.0894 0.2388,-0.0597 0.4612,-0.16308 0.6676,-0.31006 0.2064,-0.147 0.3966,-0.34205 0.5705,-0.5855 0.2211,-0.31695 0.4027,-0.67524 0.5442,-1.07487 0.1415,-0.40422 0.2458,-0.85685 0.3137,-1.35753 0.068,-0.5007 0.1018,-1.05404 0.1018,-1.66037 0,-1.83738 -0.3377,-3.20642 -1.0129,-4.10673 -0.2595,-0.3537 -0.5481,-0.59485 -0.8666,-0.72347 -0.3184,-0.12862 -0.7,-0.19275 -1.1452,-0.19275 z"
       transform="matrix(9.2609604,0,0,8.6276315,10762.762,2535.7711)" />
  </g>
</svg>
